<svg width="14" height="15" viewBox="0 0 14 15" fill="none" xmlns="http://www.w3.org/2000/svg">
<path d="M9.57029 3.45712C10.4453 3.45712 11.5117 3.16546 12.7695 2.58212C13.0429 2.45452 13.3164 2.47275 13.5898 2.63681C13.8632 2.80087 14 3.04697 14 3.37509V10.0196C14 10.3295 13.8724 10.5665 13.6172 10.7305C12.5416 11.4779 11.4297 11.8516 10.2812 11.8516C9.93123 11.8516 9.56956 11.8166 9.19623 11.7466L8.91404 11.6876C8.6406 11.6329 8.24868 11.5144 7.73826 11.3321L7.23603 11.1697C7.0396 11.1087 6.87889 11.0626 6.75389 11.0313C6.38931 10.9402 6.05207 10.8946 5.74217 10.8946C4.61197 10.8946 3.57291 11.1042 2.62499 11.5235V14.0938C2.62499 14.2761 2.56119 14.4311 2.43359 14.5587C2.30598 14.6863 2.15104 14.7501 1.96875 14.7501H1.53125C1.34896 14.7501 1.19401 14.6863 1.0664 14.5587C0.9388 14.4311 0.874998 14.2761 0.874998 14.0938V3.53915C0.674478 3.39332 0.514973 3.21103 0.396484 2.99228C0.277995 2.77353 0.21875 2.53655 0.21875 2.28134C0.21875 1.84385 0.373698 1.47471 0.683593 1.17392C0.993488 0.873144 1.36718 0.731868 1.80468 0.750098C2.20572 0.768327 2.54752 0.91416 2.83007 1.1876C3.11262 1.46103 3.26301 1.78916 3.28124 2.17197C3.29947 2.40895 3.26301 2.6277 3.17187 2.82822C3.77343 2.60947 4.39322 2.50009 5.03124 2.50009C5.46874 2.50009 5.92447 2.55478 6.39842 2.66416L6.81527 2.78302C7.02956 2.847 7.28254 2.92587 7.5742 3.01962L7.92241 3.13346C8.19027 3.21903 8.40232 3.28134 8.55857 3.3204C8.92316 3.41155 9.2604 3.45712 9.57029 3.45712Z" fill="#001844"/>
</svg>
