<svg width="14" height="15" viewBox="0 0 14 15" fill="none" xmlns="http://www.w3.org/2000/svg">
<path fill-rule="evenodd" clip-rule="evenodd" d="M9.43357 5.12499H4.59374C4.79426 3.88541 5.11327 2.88281 5.55077 2.11718C5.98827 1.35156 6.47134 0.96875 6.99998 0.96875C7.52863 0.96875 8.0117 1.35156 8.4492 2.11718C8.8867 2.88281 9.21482 3.88541 9.43357 5.12499ZM4.37499 7.74998C4.37499 7.16665 4.40233 6.58332 4.45702 5.99999H9.54295C9.59763 6.58332 9.62498 7.16665 9.62498 7.74998C9.62498 8.33332 9.59763 8.91665 9.54295 9.49999H4.45702C4.40233 8.91665 4.37499 8.33332 4.37499 7.74998ZM10.3086 5.12499H13.2617C12.8606 4.1953 12.2819 3.38867 11.5254 2.70507C10.7689 2.02148 9.90753 1.53385 8.94139 1.24219C9.5794 2.15364 10.0351 3.44791 10.3086 5.12499ZM5.05858 1.24219C4.40233 2.15364 3.94661 3.44791 3.6914 5.12499H0.73828C1.13932 4.1953 1.7181 3.38867 2.4746 2.70507C3.23111 2.02148 4.09244 1.53385 5.05858 1.24219ZM13.7812 7.74998C13.7812 7.16665 13.6992 6.58332 13.5351 5.99999H10.4179C10.4726 6.60155 10.5 7.18488 10.5 7.74998C10.5 8.31509 10.4726 8.89842 10.4179 9.49999H13.5351C13.6992 8.91665 13.7812 8.33332 13.7812 7.74998ZM3.49999 7.74998C3.49999 8.29686 3.52734 8.88019 3.58202 9.49999H0.464843C0.300781 8.89842 0.21875 8.31509 0.21875 7.74998C0.21875 7.18488 0.300781 6.60155 0.464843 5.99999H3.58202C3.52734 6.60155 3.49999 7.18488 3.49999 7.74998ZM8.4492 13.3828C8.8867 12.6172 9.20571 11.6146 9.40623 10.375H4.59374C4.79426 11.6146 5.11327 12.6172 5.55077 13.3828C5.98827 14.1484 6.47134 14.5312 6.99998 14.5312C7.52863 14.5312 8.0117 14.1484 8.4492 13.3828ZM8.94139 14.2578C9.59763 13.3463 10.0534 12.0521 10.3086 10.375H13.2617C12.8606 11.3047 12.2819 12.1113 11.5254 12.7949C10.7689 13.4785 9.90753 13.9661 8.94139 14.2578ZM3.6914 10.375H0.73828C1.13932 11.3047 1.7181 12.1113 2.4746 12.7949C3.23111 13.4785 4.09244 13.9661 5.05858 14.2578C4.42056 13.3463 3.96483 12.0521 3.6914 10.375Z" fill="#001844"/>
</svg>
