<svg width="14" height="13" viewBox="0 0 14 13" fill="none" xmlns="http://www.w3.org/2000/svg">
<path d="M12.633 1.47245C13.1981 1.94641 13.59 2.52974 13.8087 3.22245C14.0275 3.91516 14.0594 4.61242 13.9044 5.31424C13.7495 6.01606 13.4168 6.62218 12.9064 7.1326L7.62907 12.6013C7.44678 12.7836 7.23714 12.8748 7.00016 12.8748C6.76318 12.8748 6.55355 12.7836 6.37126 12.6013L1.09393 7.15994C0.58351 6.6313 0.250829 6.01606 0.0958816 5.31424C-0.0590661 4.61242 -0.027165 3.91516 0.191584 3.22245C0.410334 2.52974 0.80226 1.94641 1.36736 1.47245C1.85955 1.05318 2.41554 0.788861 3.03533 0.679486C3.65512 0.570112 4.26579 0.615684 4.86735 0.816205C5.46892 1.01672 5.99756 1.35396 6.45329 1.82792L7.00016 2.37479L7.54704 1.82792C8.00276 1.35396 8.53141 1.01672 9.13297 0.816205C9.73453 0.615684 10.3452 0.570112 10.965 0.679486C11.5848 0.788861 12.1408 1.05318 12.633 1.47245Z" fill="#001844"/>
</svg>
