<svg width="28" height="28" viewBox="0 0 28 28" xmlns="http://www.w3.org/2000/svg">
    <g id="HandBurger">
        <path d="M4 18L20 18" stroke="#000000" stroke-width="2" stroke-linecap="round"/>
<path d="M4 12L20 12" stroke="#000000" stroke-width="2" stroke-linecap="round"/>
<path d="M4 6L20 6" stroke="#000000" stroke-width="2" stroke-linecap="round"/>
    </g>
    <g id="Cross">
        <path id="Vector"
            d="M22.8036 20.9464C23.0502 21.193 23.1887 21.5274 23.1887 21.8761C23.1887 22.2248 23.0502 22.5592 22.8036 22.8058C22.557 23.0524 22.2226 23.1909 21.8739 23.1909C21.5252 23.1909 21.1908 23.0524 20.9442 22.8058L14 15.8594L7.05361 22.8036C6.80704 23.0502 6.47262 23.1887 6.12392 23.1887C5.77522 23.1887 5.4408 23.0502 5.19423 22.8036C4.94766 22.557 4.80914 22.2226 4.80914 21.8739C4.80914 21.5252 4.94766 21.1908 5.19423 20.9442L12.1406 14L5.19642 7.0536C4.94985 6.80703 4.81133 6.47262 4.81133 6.12391C4.81133 5.77521 4.94985 5.4408 5.19642 5.19423C5.44299 4.94766 5.77741 4.80914 6.12611 4.80914C6.47481 4.80914 6.80923 4.94766 7.05579 5.19423L14 12.1406L20.9464 5.19313C21.193 4.94656 21.5274 4.80804 21.8761 4.80804C22.2248 4.80804 22.5592 4.94656 22.8058 5.19313C23.0524 5.4397 23.1909 5.77412 23.1909 6.12282C23.1909 6.47152 23.0524 6.80594 22.8058 7.05251L15.8594 14L22.8036 20.9464Z"
            fill="#000" />
    </g>
    
    <g id="Arrow">
        <path
              stroke="#000"
              stroke-linecap="round"
              stroke-linejoin="round"
              stroke-width="2"
              d="M1 5h12M9 1l4 4-4 4"
            />
    </g>
</svg>
