<svg width="13" height="14" viewBox="0 0 13 14" fill="none" xmlns="http://www.w3.org/2000/svg">
<path d="M11.5937 5.88008C11.8854 6.04414 12.0814 6.27201 12.1816 6.56367C12.2819 6.85534 12.2819 7.147 12.1816 7.43867C12.0814 7.73034 11.8854 7.9582 11.5937 8.12226L1.96875 13.8097C1.69531 13.9738 1.40364 14.0285 1.09375 13.9738C0.783852 13.9191 0.524087 13.7733 0.314452 13.5363C0.104817 13.2993 0 13.0168 0 12.6887V1.31369C0 0.949103 0.109375 0.65288 0.328124 0.425016C0.546874 0.197152 0.811196 0.0604337 1.12109 0.0148608C1.43099 -0.0307122 1.71354 0.0285326 1.96875 0.192595L11.5937 5.88008Z" fill="white"/>
</svg>
