<svg width="12" height="12" viewBox="0 0 12 12" fill="none" xmlns="http://www.w3.org/2000/svg">
<path fill-rule="evenodd" clip-rule="evenodd" d="M12 10.7812C12 10.625 11.9453 10.4922 11.8359 10.3828L9.49216 8.03904C9.38279 7.92967 9.24998 7.87498 9.09373 7.87498H8.71873C9.40623 6.99998 9.74998 5.99999 9.74998 4.87499C9.74998 3.98437 9.53123 3.16796 9.09373 2.42578C8.65623 1.68359 8.06639 1.09375 7.3242 0.656248C6.58202 0.218749 5.76561 0 4.87499 0C3.98437 0 3.16796 0.218749 2.42578 0.656248C1.68359 1.09375 1.09375 1.68359 0.656248 2.42578C0.218749 3.16796 0 3.98437 0 4.87499C0 5.76561 0.218749 6.58202 0.656248 7.3242C1.09375 8.06639 1.68359 8.65623 2.42578 9.09373C3.16796 9.53123 3.98437 9.74998 4.87499 9.74998C5.99999 9.74998 6.99998 9.40623 7.87498 8.71873V9.09373C7.87498 9.24998 7.92967 9.38279 8.03904 9.49216L10.3828 11.8359C10.4922 11.9453 10.625 12 10.7812 12C10.9375 12 11.0703 11.9453 11.1797 11.8359L11.8359 11.1797C11.9453 11.0703 12 10.9375 12 10.7812ZM3.36327 7.47654C3.82421 7.74217 4.32811 7.87498 4.875 7.87498C5.42186 7.87498 5.92577 7.74217 6.3867 7.47654C6.84764 7.21092 7.21092 6.84764 7.47654 6.3867C7.74217 5.92577 7.87498 5.42186 7.87498 4.875C7.87498 4.32811 7.74217 3.82421 7.47654 3.36327C7.21092 2.90234 6.84764 2.53906 6.3867 2.27343C5.92577 2.00781 5.42186 1.875 4.875 1.875C4.32811 1.875 3.82421 2.00781 3.36327 2.27343C2.90234 2.53906 2.53906 2.90234 2.27343 3.36327C2.00781 3.82421 1.875 4.32811 1.875 4.875C1.875 5.42186 2.00781 5.92577 2.27343 6.3867C2.53906 6.84764 2.90234 7.21092 3.36327 7.47654Z" fill="#424242"/>
</svg>
