<svg width="621" height="295" viewBox="0 0 621 295" fill="none" xmlns="http://www.w3.org/2000/svg">
<path d="M0.492718 1.5H618.501" stroke="url(#paint0_linear_93_2668)" stroke-linecap="square"/>
<path d="M0.492718 68.5H618.501" stroke="url(#paint1_linear_93_2668)" stroke-linecap="square"/>
<path d="M0.492718 135.5H618.501" stroke="url(#paint2_linear_93_2668)" stroke-linecap="square"/>
<path d="M0.492718 202.5H618.501" stroke="url(#paint3_linear_93_2668)" stroke-linecap="square"/>
<path d="M0.492718 269.5H618.501" stroke="url(#paint4_linear_93_2668)" stroke-linecap="square"/>
<path d="M585.5 0.5V293.543" stroke="#CCCCCC" stroke-linecap="square"/>
<path d="M518.5 0.5V293.543" stroke="#CCCCCC" stroke-linecap="square"/>
<path d="M451.5 0.5V293.543" stroke="#CCCCCC" stroke-linecap="square"/>
<path d="M384.5 0.5V293.543" stroke="#CCCCCC" stroke-linecap="square"/>
<path d="M317.5 0.5V293.543" stroke="#CCCCCC" stroke-linecap="square"/>
<path d="M250.5 0.5V293.543" stroke="#CCCCCC" stroke-linecap="square"/>
<path d="M183.5 0.5V293.543" stroke="#CCCCCC" stroke-linecap="square"/>
<path opacity="0.5" d="M116.5 0.5V293.543" stroke="#CCCCCC" stroke-linecap="square"/>
<path opacity="0.2" d="M49.5 0.5V293.543" stroke="#CCCCCC" stroke-linecap="square"/>
<g clip-path="url(#clip0_93_2668)">
<path d="M601.035 17.6973V16.4668C600.586 16.459 600.156 16.4199 599.746 16.3496C599.34 16.2793 599.008 16.1875 598.75 16.0742V15.125C599.02 15.25 599.365 15.3594 599.787 15.4531C600.209 15.5469 600.625 15.5977 601.035 15.6055V13.0273C600.52 12.8828 600.092 12.7188 599.752 12.5352C599.416 12.3477 599.164 12.1191 598.996 11.8496C598.828 11.5801 598.744 11.2539 598.744 10.8711C598.744 10.4727 598.838 10.1328 599.025 9.85156C599.217 9.56641 599.484 9.34375 599.828 9.18359C600.172 9.02344 600.574 8.93164 601.035 8.9082V7.89453H601.75V8.89648C602.168 8.9082 602.549 8.95508 602.893 9.03711C603.236 9.11523 603.555 9.2168 603.848 9.3418L603.543 10.1562C603.277 10.0508 602.99 9.96094 602.682 9.88672C602.373 9.8125 602.062 9.76172 601.75 9.73438V12.2949C602.273 12.4473 602.711 12.6094 603.062 12.7812C603.418 12.9531 603.686 13.166 603.865 13.4199C604.045 13.6738 604.135 14.002 604.135 14.4043C604.135 14.9746 603.926 15.4355 603.508 15.7871C603.09 16.1348 602.504 16.3457 601.75 16.4199V17.6973H601.035ZM601.75 15.5527C602.23 15.5059 602.588 15.3906 602.822 15.207C603.061 15.0195 603.18 14.7734 603.18 14.4688C603.18 14.25 603.133 14.0703 603.039 13.9297C602.949 13.7891 602.801 13.668 602.594 13.5664C602.387 13.4609 602.105 13.3613 601.75 13.2676V15.5527ZM601.035 12.0488V9.75781C600.742 9.77734 600.496 9.83203 600.297 9.92188C600.098 10.0117 599.947 10.1289 599.846 10.2734C599.748 10.418 599.699 10.5898 599.699 10.7891C599.699 11.0195 599.742 11.2129 599.828 11.3691C599.918 11.5215 600.061 11.6523 600.256 11.7617C600.455 11.8672 600.715 11.9629 601.035 12.0488ZM614.236 12.7051C614.236 13.4004 614.184 14.0215 614.078 14.5684C613.973 15.1152 613.807 15.5781 613.58 15.957C613.354 16.3359 613.061 16.625 612.701 16.8242C612.342 17.0195 611.91 17.1172 611.406 17.1172C610.77 17.1172 610.242 16.9434 609.824 16.5957C609.41 16.248 609.1 15.7461 608.893 15.0898C608.689 14.4297 608.588 13.6348 608.588 12.7051C608.588 11.791 608.68 11.0059 608.863 10.3496C609.051 9.68945 609.352 9.18359 609.766 8.83203C610.18 8.47656 610.727 8.29883 611.406 8.29883C612.051 8.29883 612.582 8.47461 613 8.82617C613.418 9.17383 613.729 9.67773 613.932 10.3379C614.135 10.9941 614.236 11.7832 614.236 12.7051ZM609.566 12.7051C609.566 13.502 609.627 14.166 609.748 14.6973C609.869 15.2285 610.064 15.627 610.334 15.8926C610.607 16.1543 610.965 16.2852 611.406 16.2852C611.848 16.2852 612.203 16.1543 612.473 15.8926C612.746 15.6309 612.943 15.2344 613.064 14.7031C613.189 14.1719 613.252 13.5059 613.252 12.7051C613.252 11.9199 613.191 11.2637 613.07 10.7363C612.949 10.2051 612.754 9.80664 612.484 9.54102C612.215 9.27148 611.855 9.13672 611.406 9.13672C610.957 9.13672 610.598 9.27148 610.328 9.54102C610.059 9.80664 609.863 10.2051 609.742 10.7363C609.625 11.2637 609.566 11.9199 609.566 12.7051ZM615.73 16.3906C615.73 16.1172 615.797 15.9238 615.93 15.8105C616.062 15.6934 616.225 15.6348 616.416 15.6348C616.615 15.6348 616.783 15.6934 616.92 15.8105C617.057 15.9238 617.125 16.1172 617.125 16.3906C617.125 16.6602 617.057 16.8574 616.92 16.9824C616.783 17.1035 616.615 17.1641 616.416 17.1641C616.225 17.1641 616.062 17.1035 615.93 16.9824C615.797 16.8574 615.73 16.6602 615.73 16.3906ZM624.221 12.084C624.221 12.6035 624.184 13.1094 624.109 13.6016C624.039 14.0938 623.916 14.5527 623.74 14.9785C623.568 15.4043 623.334 15.7773 623.037 16.0977C622.74 16.418 622.367 16.6699 621.918 16.8535C621.473 17.0332 620.939 17.123 620.318 17.123C620.15 17.123 619.959 17.1113 619.744 17.0879C619.529 17.0684 619.354 17.0391 619.217 17V16.1562C619.361 16.207 619.531 16.248 619.727 16.2793C619.922 16.3066 620.113 16.3203 620.301 16.3203C621.031 16.3203 621.605 16.1641 622.023 15.8516C622.441 15.5352 622.742 15.1074 622.926 14.5684C623.109 14.0254 623.213 13.416 623.236 12.7402H623.166C623.049 12.9277 622.895 13.1016 622.703 13.2617C622.516 13.418 622.287 13.5449 622.018 13.6426C621.748 13.7363 621.434 13.7832 621.074 13.7832C620.578 13.7832 620.145 13.6816 619.773 13.4785C619.406 13.2754 619.119 12.9805 618.912 12.5938C618.709 12.207 618.607 11.7402 618.607 11.1934C618.607 10.6035 618.719 10.0938 618.941 9.66406C619.168 9.23047 619.484 8.89648 619.891 8.66211C620.297 8.42773 620.775 8.31055 621.326 8.31055C621.748 8.31055 622.135 8.39062 622.486 8.55078C622.838 8.71094 623.143 8.95117 623.4 9.27148C623.662 9.58789 623.863 9.98047 624.004 10.4492C624.148 10.918 624.221 11.4629 624.221 12.084ZM621.326 9.13672C620.807 9.13672 620.385 9.30664 620.061 9.64648C619.74 9.98633 619.58 10.498 619.58 11.1816C619.58 11.748 619.719 12.1953 619.996 12.5234C620.273 12.8516 620.701 13.0156 621.279 13.0156C621.678 13.0156 622.021 12.9355 622.311 12.7754C622.604 12.6152 622.828 12.4121 622.984 12.166C623.145 11.9199 623.225 11.668 623.225 11.4102C623.225 11.1523 623.186 10.8906 623.107 10.625C623.033 10.3594 622.918 10.1152 622.762 9.89258C622.605 9.66602 622.408 9.48438 622.17 9.34766C621.932 9.20703 621.65 9.13672 621.326 9.13672Z" fill="#858585"/>
<path d="M601.035 84.6973V83.4668C600.586 83.459 600.156 83.4199 599.746 83.3496C599.34 83.2793 599.008 83.1875 598.75 83.0742V82.125C599.02 82.25 599.365 82.3594 599.787 82.4531C600.209 82.5469 600.625 82.5977 601.035 82.6055V80.0273C600.52 79.8828 600.092 79.7188 599.752 79.5352C599.416 79.3477 599.164 79.1191 598.996 78.8496C598.828 78.5801 598.744 78.2539 598.744 77.8711C598.744 77.4727 598.838 77.1328 599.025 76.8516C599.217 76.5664 599.484 76.3438 599.828 76.1836C600.172 76.0234 600.574 75.9316 601.035 75.9082V74.8945H601.75V75.8965C602.168 75.9082 602.549 75.9551 602.893 76.0371C603.236 76.1152 603.555 76.2168 603.848 76.3418L603.543 77.1562C603.277 77.0508 602.99 76.9609 602.682 76.8867C602.373 76.8125 602.062 76.7617 601.75 76.7344V79.2949C602.273 79.4473 602.711 79.6094 603.062 79.7812C603.418 79.9531 603.686 80.166 603.865 80.4199C604.045 80.6738 604.135 81.002 604.135 81.4043C604.135 81.9746 603.926 82.4355 603.508 82.7871C603.09 83.1348 602.504 83.3457 601.75 83.4199V84.6973H601.035ZM601.75 82.5527C602.23 82.5059 602.588 82.3906 602.822 82.207C603.061 82.0195 603.18 81.7734 603.18 81.4688C603.18 81.25 603.133 81.0703 603.039 80.9297C602.949 80.7891 602.801 80.668 602.594 80.5664C602.387 80.4609 602.105 80.3613 601.75 80.2676V82.5527ZM601.035 79.0488V76.7578C600.742 76.7773 600.496 76.832 600.297 76.9219C600.098 77.0117 599.947 77.1289 599.846 77.2734C599.748 77.418 599.699 77.5898 599.699 77.7891C599.699 78.0195 599.742 78.2129 599.828 78.3691C599.918 78.5215 600.061 78.6523 600.256 78.7617C600.455 78.8672 600.715 78.9629 601.035 79.0488ZM614.236 79.7051C614.236 80.4004 614.184 81.0215 614.078 81.5684C613.973 82.1152 613.807 82.5781 613.58 82.957C613.354 83.3359 613.061 83.625 612.701 83.8242C612.342 84.0195 611.91 84.1172 611.406 84.1172C610.77 84.1172 610.242 83.9434 609.824 83.5957C609.41 83.248 609.1 82.7461 608.893 82.0898C608.689 81.4297 608.588 80.6348 608.588 79.7051C608.588 78.791 608.68 78.0059 608.863 77.3496C609.051 76.6895 609.352 76.1836 609.766 75.832C610.18 75.4766 610.727 75.2988 611.406 75.2988C612.051 75.2988 612.582 75.4746 613 75.8262C613.418 76.1738 613.729 76.6777 613.932 77.3379C614.135 77.9941 614.236 78.7832 614.236 79.7051ZM609.566 79.7051C609.566 80.502 609.627 81.166 609.748 81.6973C609.869 82.2285 610.064 82.627 610.334 82.8926C610.607 83.1543 610.965 83.2852 611.406 83.2852C611.848 83.2852 612.203 83.1543 612.473 82.8926C612.746 82.6309 612.943 82.2344 613.064 81.7031C613.189 81.1719 613.252 80.5059 613.252 79.7051C613.252 78.9199 613.191 78.2637 613.07 77.7363C612.949 77.2051 612.754 76.8066 612.484 76.541C612.215 76.2715 611.855 76.1367 611.406 76.1367C610.957 76.1367 610.598 76.2715 610.328 76.541C610.059 76.8066 609.863 77.2051 609.742 77.7363C609.625 78.2637 609.566 78.9199 609.566 79.7051ZM615.73 83.3906C615.73 83.1172 615.797 82.9238 615.93 82.8105C616.062 82.6934 616.225 82.6348 616.416 82.6348C616.615 82.6348 616.783 82.6934 616.92 82.8105C617.057 82.9238 617.125 83.1172 617.125 83.3906C617.125 83.6602 617.057 83.8574 616.92 83.9824C616.783 84.1035 616.615 84.1641 616.416 84.1641C616.225 84.1641 616.062 84.1035 615.93 83.9824C615.797 83.8574 615.73 83.6602 615.73 83.3906ZM621.426 75.3105C621.922 75.3105 622.361 75.3887 622.744 75.5449C623.127 75.7012 623.426 75.9316 623.641 76.2363C623.859 76.5371 623.969 76.9082 623.969 77.3496C623.969 77.6973 623.893 78.002 623.74 78.2637C623.592 78.5215 623.391 78.748 623.137 78.9434C622.883 79.1348 622.602 79.3066 622.293 79.459C622.66 79.627 622.99 79.8164 623.283 80.0273C623.58 80.2383 623.814 80.4863 623.986 80.7715C624.158 81.0566 624.244 81.3945 624.244 81.7852C624.244 82.2656 624.127 82.6816 623.893 83.0332C623.662 83.3809 623.338 83.6484 622.92 83.8359C622.502 84.0234 622.012 84.1172 621.449 84.1172C620.844 84.1172 620.328 84.0273 619.902 83.8477C619.48 83.6641 619.158 83.4023 618.936 83.0625C618.717 82.7188 618.607 82.3066 618.607 81.8262C618.607 81.4316 618.691 81.0898 618.859 80.8008C619.027 80.5078 619.25 80.2559 619.527 80.0449C619.805 79.834 620.107 79.6562 620.436 79.5117C620.15 79.3555 619.889 79.1777 619.65 78.9785C619.416 78.7793 619.229 78.5469 619.088 78.2812C618.951 78.0117 618.883 77.6992 618.883 77.3438C618.883 76.9102 618.992 76.543 619.211 76.2422C619.434 75.9375 619.736 75.707 620.119 75.5508C620.506 75.3906 620.941 75.3105 621.426 75.3105ZM619.562 81.832C619.562 82.2695 619.717 82.6309 620.025 82.916C620.334 83.1973 620.801 83.3379 621.426 83.3379C622.02 83.3379 622.479 83.1973 622.803 82.916C623.127 82.6309 623.289 82.2578 623.289 81.7969C623.289 81.5117 623.215 81.2617 623.066 81.0469C622.918 80.8281 622.707 80.6328 622.434 80.4609C622.16 80.2891 621.838 80.1328 621.467 79.9922L621.256 79.916C620.896 80.0645 620.59 80.2305 620.336 80.4141C620.086 80.5938 619.895 80.7988 619.762 81.0293C619.629 81.2598 619.562 81.5273 619.562 81.832ZM621.414 76.1074C620.953 76.1074 620.576 76.2188 620.283 76.4414C619.99 76.6602 619.844 76.9766 619.844 77.3906C619.844 77.6875 619.914 77.9395 620.055 78.1465C620.199 78.3496 620.395 78.5254 620.641 78.6738C620.887 78.8184 621.162 78.9531 621.467 79.0781C621.764 78.9531 622.027 78.8164 622.258 78.668C622.488 78.5156 622.67 78.3359 622.803 78.1289C622.936 77.9219 623.002 77.6738 623.002 77.3848C623.002 76.9707 622.855 76.6543 622.562 76.4355C622.273 76.2168 621.891 76.1074 621.414 76.1074Z" fill="#858585"/>
<path d="M601.035 151.697V150.467C600.586 150.459 600.156 150.42 599.746 150.35C599.34 150.279 599.008 150.188 598.75 150.074V149.125C599.02 149.25 599.365 149.359 599.787 149.453C600.209 149.547 600.625 149.598 601.035 149.605V147.027C600.52 146.883 600.092 146.719 599.752 146.535C599.416 146.348 599.164 146.119 598.996 145.85C598.828 145.58 598.744 145.254 598.744 144.871C598.744 144.473 598.838 144.133 599.025 143.852C599.217 143.566 599.484 143.344 599.828 143.184C600.172 143.023 600.574 142.932 601.035 142.908V141.895H601.75V142.896C602.168 142.908 602.549 142.955 602.893 143.037C603.236 143.115 603.555 143.217 603.848 143.342L603.543 144.156C603.277 144.051 602.99 143.961 602.682 143.887C602.373 143.812 602.062 143.762 601.75 143.734V146.295C602.273 146.447 602.711 146.609 603.062 146.781C603.418 146.953 603.686 147.166 603.865 147.42C604.045 147.674 604.135 148.002 604.135 148.404C604.135 148.975 603.926 149.436 603.508 149.787C603.09 150.135 602.504 150.346 601.75 150.42V151.697H601.035ZM601.75 149.553C602.23 149.506 602.588 149.391 602.822 149.207C603.061 149.02 603.18 148.773 603.18 148.469C603.18 148.25 603.133 148.07 603.039 147.93C602.949 147.789 602.801 147.668 602.594 147.566C602.387 147.461 602.105 147.361 601.75 147.268V149.553ZM601.035 146.049V143.758C600.742 143.777 600.496 143.832 600.297 143.922C600.098 144.012 599.947 144.129 599.846 144.273C599.748 144.418 599.699 144.59 599.699 144.789C599.699 145.02 599.742 145.213 599.828 145.369C599.918 145.521 600.061 145.652 600.256 145.762C600.455 145.867 600.715 145.963 601.035 146.049ZM614.236 146.705C614.236 147.4 614.184 148.021 614.078 148.568C613.973 149.115 613.807 149.578 613.58 149.957C613.354 150.336 613.061 150.625 612.701 150.824C612.342 151.02 611.91 151.117 611.406 151.117C610.77 151.117 610.242 150.943 609.824 150.596C609.41 150.248 609.1 149.746 608.893 149.09C608.689 148.43 608.588 147.635 608.588 146.705C608.588 145.791 608.68 145.006 608.863 144.35C609.051 143.689 609.352 143.184 609.766 142.832C610.18 142.477 610.727 142.299 611.406 142.299C612.051 142.299 612.582 142.475 613 142.826C613.418 143.174 613.729 143.678 613.932 144.338C614.135 144.994 614.236 145.783 614.236 146.705ZM609.566 146.705C609.566 147.502 609.627 148.166 609.748 148.697C609.869 149.229 610.064 149.627 610.334 149.893C610.607 150.154 610.965 150.285 611.406 150.285C611.848 150.285 612.203 150.154 612.473 149.893C612.746 149.631 612.943 149.234 613.064 148.703C613.189 148.172 613.252 147.506 613.252 146.705C613.252 145.92 613.191 145.264 613.07 144.736C612.949 144.205 612.754 143.807 612.484 143.541C612.215 143.271 611.855 143.137 611.406 143.137C610.957 143.137 610.598 143.271 610.328 143.541C610.059 143.807 609.863 144.205 609.742 144.736C609.625 145.264 609.566 145.92 609.566 146.705ZM615.73 150.391C615.73 150.117 615.797 149.924 615.93 149.811C616.062 149.693 616.225 149.635 616.416 149.635C616.615 149.635 616.783 149.693 616.92 149.811C617.057 149.924 617.125 150.117 617.125 150.391C617.125 150.66 617.057 150.857 616.92 150.982C616.783 151.104 616.615 151.164 616.416 151.164C616.225 151.164 616.062 151.104 615.93 150.982C615.797 150.857 615.73 150.66 615.73 150.391ZM619.703 151L623.219 143.324H618.549V142.434H624.262V143.184L620.77 151H619.703Z" fill="#858585"/>
<path d="M601.035 218.697V217.467C600.586 217.459 600.156 217.42 599.746 217.35C599.34 217.279 599.008 217.188 598.75 217.074V216.125C599.02 216.25 599.365 216.359 599.787 216.453C600.209 216.547 600.625 216.598 601.035 216.605V214.027C600.52 213.883 600.092 213.719 599.752 213.535C599.416 213.348 599.164 213.119 598.996 212.85C598.828 212.58 598.744 212.254 598.744 211.871C598.744 211.473 598.838 211.133 599.025 210.852C599.217 210.566 599.484 210.344 599.828 210.184C600.172 210.023 600.574 209.932 601.035 209.908V208.895H601.75V209.896C602.168 209.908 602.549 209.955 602.893 210.037C603.236 210.115 603.555 210.217 603.848 210.342L603.543 211.156C603.277 211.051 602.99 210.961 602.682 210.887C602.373 210.812 602.062 210.762 601.75 210.734V213.295C602.273 213.447 602.711 213.609 603.062 213.781C603.418 213.953 603.686 214.166 603.865 214.42C604.045 214.674 604.135 215.002 604.135 215.404C604.135 215.975 603.926 216.436 603.508 216.787C603.09 217.135 602.504 217.346 601.75 217.42V218.697H601.035ZM601.75 216.553C602.23 216.506 602.588 216.391 602.822 216.207C603.061 216.02 603.18 215.773 603.18 215.469C603.18 215.25 603.133 215.07 603.039 214.93C602.949 214.789 602.801 214.668 602.594 214.566C602.387 214.461 602.105 214.361 601.75 214.268V216.553ZM601.035 213.049V210.758C600.742 210.777 600.496 210.832 600.297 210.922C600.098 211.012 599.947 211.129 599.846 211.273C599.748 211.418 599.699 211.59 599.699 211.789C599.699 212.02 599.742 212.213 599.828 212.369C599.918 212.521 600.061 212.652 600.256 212.762C600.455 212.867 600.715 212.963 601.035 213.049ZM614.236 213.705C614.236 214.4 614.184 215.021 614.078 215.568C613.973 216.115 613.807 216.578 613.58 216.957C613.354 217.336 613.061 217.625 612.701 217.824C612.342 218.02 611.91 218.117 611.406 218.117C610.77 218.117 610.242 217.943 609.824 217.596C609.41 217.248 609.1 216.746 608.893 216.09C608.689 215.43 608.588 214.635 608.588 213.705C608.588 212.791 608.68 212.006 608.863 211.35C609.051 210.689 609.352 210.184 609.766 209.832C610.18 209.477 610.727 209.299 611.406 209.299C612.051 209.299 612.582 209.475 613 209.826C613.418 210.174 613.729 210.678 613.932 211.338C614.135 211.994 614.236 212.783 614.236 213.705ZM609.566 213.705C609.566 214.502 609.627 215.166 609.748 215.697C609.869 216.229 610.064 216.627 610.334 216.893C610.607 217.154 610.965 217.285 611.406 217.285C611.848 217.285 612.203 217.154 612.473 216.893C612.746 216.631 612.943 216.234 613.064 215.703C613.189 215.172 613.252 214.506 613.252 213.705C613.252 212.92 613.191 212.264 613.07 211.736C612.949 211.205 612.754 210.807 612.484 210.541C612.215 210.271 611.855 210.137 611.406 210.137C610.957 210.137 610.598 210.271 610.328 210.541C610.059 210.807 609.863 211.205 609.742 211.736C609.625 212.264 609.566 212.92 609.566 213.705ZM615.73 217.391C615.73 217.117 615.797 216.924 615.93 216.811C616.062 216.693 616.225 216.635 616.416 216.635C616.615 216.635 616.783 216.693 616.92 216.811C617.057 216.924 617.125 217.117 617.125 217.391C617.125 217.66 617.057 217.857 616.92 217.982C616.783 218.104 616.615 218.164 616.416 218.164C616.225 218.164 616.062 218.104 615.93 217.982C615.797 217.857 615.73 217.66 615.73 217.391ZM618.684 214.338C618.684 213.822 618.719 213.318 618.789 212.826C618.863 212.334 618.986 211.877 619.158 211.455C619.33 211.029 619.564 210.656 619.861 210.336C620.158 210.016 620.527 209.766 620.969 209.586C621.414 209.402 621.947 209.311 622.568 209.311C622.744 209.311 622.934 209.32 623.137 209.34C623.34 209.355 623.508 209.383 623.641 209.422V210.26C623.496 210.209 623.33 210.172 623.143 210.148C622.959 210.125 622.773 210.113 622.586 210.113C621.859 210.113 621.287 210.271 620.869 210.588C620.455 210.904 620.156 211.334 619.973 211.877C619.789 212.416 619.684 213.023 619.656 213.699H619.721C619.842 213.504 619.996 213.328 620.184 213.172C620.371 213.012 620.598 212.885 620.863 212.791C621.133 212.697 621.445 212.65 621.801 212.65C622.301 212.65 622.736 212.752 623.107 212.955C623.482 213.158 623.771 213.453 623.975 213.84C624.182 214.227 624.285 214.695 624.285 215.246C624.285 215.836 624.176 216.346 623.957 216.775C623.738 217.205 623.426 217.537 623.02 217.771C622.617 218.002 622.137 218.117 621.578 218.117C621.16 218.117 620.775 218.037 620.424 217.877C620.072 217.717 619.766 217.479 619.504 217.162C619.246 216.846 619.045 216.453 618.9 215.984C618.756 215.512 618.684 214.963 618.684 214.338ZM621.566 217.297C622.098 217.297 622.523 217.127 622.844 216.787C623.164 216.447 623.324 215.934 623.324 215.246C623.324 214.684 623.182 214.238 622.896 213.91C622.611 213.582 622.182 213.418 621.607 213.418C621.217 213.418 620.877 213.5 620.588 213.664C620.299 213.824 620.074 214.027 619.914 214.273C619.754 214.52 619.674 214.77 619.674 215.023C619.674 215.281 619.711 215.543 619.785 215.809C619.863 216.074 619.98 216.32 620.137 216.547C620.293 216.773 620.49 216.955 620.729 217.092C620.967 217.229 621.246 217.297 621.566 217.297Z" fill="#858585"/>
<path d="M601.035 285.697V284.467C600.586 284.459 600.156 284.42 599.746 284.35C599.34 284.279 599.008 284.188 598.75 284.074V283.125C599.02 283.25 599.365 283.359 599.787 283.453C600.209 283.547 600.625 283.598 601.035 283.605V281.027C600.52 280.883 600.092 280.719 599.752 280.535C599.416 280.348 599.164 280.119 598.996 279.85C598.828 279.58 598.744 279.254 598.744 278.871C598.744 278.473 598.838 278.133 599.025 277.852C599.217 277.566 599.484 277.344 599.828 277.184C600.172 277.023 600.574 276.932 601.035 276.908V275.895H601.75V276.896C602.168 276.908 602.549 276.955 602.893 277.037C603.236 277.115 603.555 277.217 603.848 277.342L603.543 278.156C603.277 278.051 602.99 277.961 602.682 277.887C602.373 277.812 602.062 277.762 601.75 277.734V280.295C602.273 280.447 602.711 280.609 603.062 280.781C603.418 280.953 603.686 281.166 603.865 281.42C604.045 281.674 604.135 282.002 604.135 282.404C604.135 282.975 603.926 283.436 603.508 283.787C603.09 284.135 602.504 284.346 601.75 284.42V285.697H601.035ZM601.75 283.553C602.23 283.506 602.588 283.391 602.822 283.207C603.061 283.02 603.18 282.773 603.18 282.469C603.18 282.25 603.133 282.07 603.039 281.93C602.949 281.789 602.801 281.668 602.594 281.566C602.387 281.461 602.105 281.361 601.75 281.268V283.553ZM601.035 280.049V277.758C600.742 277.777 600.496 277.832 600.297 277.922C600.098 278.012 599.947 278.129 599.846 278.273C599.748 278.418 599.699 278.59 599.699 278.789C599.699 279.02 599.742 279.213 599.828 279.369C599.918 279.521 600.061 279.652 600.256 279.762C600.455 279.867 600.715 279.963 601.035 280.049ZM614.236 280.705C614.236 281.4 614.184 282.021 614.078 282.568C613.973 283.115 613.807 283.578 613.58 283.957C613.354 284.336 613.061 284.625 612.701 284.824C612.342 285.02 611.91 285.117 611.406 285.117C610.77 285.117 610.242 284.943 609.824 284.596C609.41 284.248 609.1 283.746 608.893 283.09C608.689 282.43 608.588 281.635 608.588 280.705C608.588 279.791 608.68 279.006 608.863 278.35C609.051 277.689 609.352 277.184 609.766 276.832C610.18 276.477 610.727 276.299 611.406 276.299C612.051 276.299 612.582 276.475 613 276.826C613.418 277.174 613.729 277.678 613.932 278.338C614.135 278.994 614.236 279.783 614.236 280.705ZM609.566 280.705C609.566 281.502 609.627 282.166 609.748 282.697C609.869 283.229 610.064 283.627 610.334 283.893C610.607 284.154 610.965 284.285 611.406 284.285C611.848 284.285 612.203 284.154 612.473 283.893C612.746 283.631 612.943 283.234 613.064 282.703C613.189 282.172 613.252 281.506 613.252 280.705C613.252 279.92 613.191 279.264 613.07 278.736C612.949 278.205 612.754 277.807 612.484 277.541C612.215 277.271 611.855 277.137 611.406 277.137C610.957 277.137 610.598 277.271 610.328 277.541C610.059 277.807 609.863 278.205 609.742 278.736C609.625 279.264 609.566 279.92 609.566 280.705ZM615.73 284.391C615.73 284.117 615.797 283.924 615.93 283.811C616.062 283.693 616.225 283.635 616.416 283.635C616.615 283.635 616.783 283.693 616.92 283.811C617.057 283.924 617.125 284.117 617.125 284.391C617.125 284.66 617.057 284.857 616.92 284.982C616.783 285.104 616.615 285.164 616.416 285.164C616.225 285.164 616.062 285.104 615.93 284.982C615.797 284.857 615.73 284.66 615.73 284.391ZM621.303 279.762C621.885 279.762 622.391 279.861 622.82 280.061C623.25 280.256 623.582 280.541 623.816 280.916C624.055 281.291 624.174 281.746 624.174 282.281C624.174 282.867 624.047 283.373 623.793 283.799C623.539 284.221 623.174 284.547 622.697 284.777C622.221 285.004 621.65 285.117 620.986 285.117C620.541 285.117 620.127 285.078 619.744 285C619.361 284.922 619.039 284.805 618.777 284.648V283.723C619.062 283.895 619.408 284.031 619.814 284.133C620.221 284.234 620.615 284.285 620.998 284.285C621.432 284.285 621.811 284.217 622.135 284.08C622.463 283.939 622.717 283.729 622.896 283.447C623.08 283.162 623.172 282.805 623.172 282.375C623.172 281.805 622.996 281.365 622.645 281.057C622.297 280.744 621.746 280.588 620.992 280.588C620.75 280.588 620.484 280.607 620.195 280.646C619.906 280.686 619.668 280.729 619.48 280.775L618.988 280.453L619.316 276.434H623.576V277.324H620.148L619.932 279.908C620.08 279.877 620.271 279.846 620.506 279.814C620.74 279.779 621.006 279.762 621.303 279.762Z" fill="#858585"/>
</g>
<g clip-path="url(#clip1_93_2668)">
<path d="M555.699 285L559.215 277.324H554.545V276.434H560.258V277.184L556.766 285H555.699ZM567.395 276.434C568.5 276.434 569.307 276.65 569.814 277.084C570.326 277.514 570.582 278.131 570.582 278.936C570.582 279.299 570.521 279.645 570.4 279.973C570.283 280.297 570.092 280.584 569.826 280.834C569.561 281.08 569.211 281.275 568.777 281.42C568.348 281.561 567.82 281.631 567.195 281.631H566.152V285H565.156V276.434H567.395ZM567.301 277.283H566.152V280.775H567.084C567.631 280.775 568.086 280.717 568.449 280.6C568.816 280.482 569.092 280.293 569.275 280.031C569.459 279.766 569.551 279.414 569.551 278.977C569.551 278.406 569.369 277.982 569.006 277.705C568.643 277.424 568.074 277.283 567.301 277.283ZM576.143 285L573.266 277.418H573.219C573.234 277.578 573.248 277.773 573.26 278.004C573.271 278.234 573.281 278.486 573.289 278.76C573.297 279.029 573.301 279.305 573.301 279.586V285H572.375V276.434H573.852L576.564 283.559H576.605L579.359 276.434H580.824V285H579.84V279.516C579.84 279.262 579.844 279.008 579.852 278.754C579.859 278.496 579.869 278.254 579.881 278.027C579.893 277.797 579.904 277.598 579.916 277.43H579.869L576.957 285H576.143Z" fill="#858585"/>
<path d="M487.68 281.338C487.68 280.822 487.715 280.318 487.785 279.826C487.859 279.334 487.982 278.877 488.154 278.455C488.326 278.029 488.561 277.656 488.857 277.336C489.154 277.016 489.523 276.766 489.965 276.586C490.41 276.402 490.943 276.311 491.564 276.311C491.74 276.311 491.93 276.32 492.133 276.34C492.336 276.355 492.504 276.383 492.637 276.422V277.26C492.492 277.209 492.326 277.172 492.139 277.148C491.955 277.125 491.77 277.113 491.582 277.113C490.855 277.113 490.283 277.271 489.865 277.588C489.451 277.904 489.152 278.334 488.969 278.877C488.785 279.416 488.68 280.023 488.652 280.699H488.717C488.838 280.504 488.992 280.328 489.18 280.172C489.367 280.012 489.594 279.885 489.859 279.791C490.129 279.697 490.441 279.65 490.797 279.65C491.297 279.65 491.732 279.752 492.104 279.955C492.479 280.158 492.768 280.453 492.971 280.84C493.178 281.227 493.281 281.695 493.281 282.246C493.281 282.836 493.172 283.346 492.953 283.775C492.734 284.205 492.422 284.537 492.016 284.771C491.613 285.002 491.133 285.117 490.574 285.117C490.156 285.117 489.771 285.037 489.42 284.877C489.068 284.717 488.762 284.479 488.5 284.162C488.242 283.846 488.041 283.453 487.896 282.984C487.752 282.512 487.68 281.963 487.68 281.338ZM490.562 284.297C491.094 284.297 491.52 284.127 491.84 283.787C492.16 283.447 492.32 282.934 492.32 282.246C492.32 281.684 492.178 281.238 491.893 280.91C491.607 280.582 491.178 280.418 490.604 280.418C490.213 280.418 489.873 280.5 489.584 280.664C489.295 280.824 489.07 281.027 488.91 281.273C488.75 281.52 488.67 281.77 488.67 282.023C488.67 282.281 488.707 282.543 488.781 282.809C488.859 283.074 488.977 283.32 489.133 283.547C489.289 283.773 489.486 283.955 489.725 284.092C489.963 284.229 490.242 284.297 490.562 284.297ZM500.395 276.434C501.5 276.434 502.307 276.65 502.814 277.084C503.326 277.514 503.582 278.131 503.582 278.936C503.582 279.299 503.521 279.645 503.4 279.973C503.283 280.297 503.092 280.584 502.826 280.834C502.561 281.08 502.211 281.275 501.777 281.42C501.348 281.561 500.82 281.631 500.195 281.631H499.152V285H498.156V276.434H500.395ZM500.301 277.283H499.152V280.775H500.084C500.631 280.775 501.086 280.717 501.449 280.6C501.816 280.482 502.092 280.293 502.275 280.031C502.459 279.766 502.551 279.414 502.551 278.977C502.551 278.406 502.369 277.982 502.006 277.705C501.643 277.424 501.074 277.283 500.301 277.283ZM509.143 285L506.266 277.418H506.219C506.234 277.578 506.248 277.773 506.26 278.004C506.271 278.234 506.281 278.486 506.289 278.76C506.297 279.029 506.301 279.305 506.301 279.586V285H505.375V276.434H506.852L509.564 283.559H509.605L512.359 276.434H513.824V285H512.84V279.516C512.84 279.262 512.844 279.008 512.852 278.754C512.859 278.496 512.869 278.254 512.881 278.027C512.893 277.797 512.904 277.598 512.916 277.43H512.869L509.957 285H509.143Z" fill="#858585"/>
<path d="M423.299 279.762C423.881 279.762 424.387 279.861 424.816 280.061C425.246 280.256 425.578 280.541 425.812 280.916C426.051 281.291 426.17 281.746 426.17 282.281C426.17 282.867 426.043 283.373 425.789 283.799C425.535 284.221 425.17 284.547 424.693 284.777C424.217 285.004 423.646 285.117 422.982 285.117C422.537 285.117 422.123 285.078 421.74 285C421.357 284.922 421.035 284.805 420.773 284.648V283.723C421.059 283.895 421.404 284.031 421.811 284.133C422.217 284.234 422.611 284.285 422.994 284.285C423.428 284.285 423.807 284.217 424.131 284.08C424.459 283.939 424.713 283.729 424.893 283.447C425.076 283.162 425.168 282.805 425.168 282.375C425.168 281.805 424.992 281.365 424.641 281.057C424.293 280.744 423.742 280.588 422.988 280.588C422.746 280.588 422.48 280.607 422.191 280.646C421.902 280.686 421.664 280.729 421.477 280.775L420.984 280.453L421.312 276.434H425.572V277.324H422.145L421.928 279.908C422.076 279.877 422.268 279.846 422.502 279.814C422.736 279.779 423.002 279.762 423.299 279.762ZM433.395 276.434C434.5 276.434 435.307 276.65 435.814 277.084C436.326 277.514 436.582 278.131 436.582 278.936C436.582 279.299 436.521 279.645 436.4 279.973C436.283 280.297 436.092 280.584 435.826 280.834C435.561 281.08 435.211 281.275 434.777 281.42C434.348 281.561 433.82 281.631 433.195 281.631H432.152V285H431.156V276.434H433.395ZM433.301 277.283H432.152V280.775H433.084C433.631 280.775 434.086 280.717 434.449 280.6C434.816 280.482 435.092 280.293 435.275 280.031C435.459 279.766 435.551 279.414 435.551 278.977C435.551 278.406 435.369 277.982 435.006 277.705C434.643 277.424 434.074 277.283 433.301 277.283ZM442.143 285L439.266 277.418H439.219C439.234 277.578 439.248 277.773 439.26 278.004C439.271 278.234 439.281 278.486 439.289 278.76C439.297 279.029 439.301 279.305 439.301 279.586V285H438.375V276.434H439.852L442.564 283.559H442.605L445.359 276.434H446.824V285H445.84V279.516C445.84 279.262 445.844 279.008 445.852 278.754C445.859 278.496 445.869 278.254 445.881 278.027C445.893 277.797 445.904 277.598 445.916 277.43H445.869L442.957 285H442.143Z" fill="#858585"/>
<path d="M359.633 283.014H358.35V285H357.4V283.014H353.258V282.193L357.336 276.387H358.35V282.135H359.633V283.014ZM357.4 282.135V279.334C357.4 279.119 357.402 278.926 357.406 278.754C357.41 278.578 357.416 278.416 357.424 278.268C357.432 278.115 357.438 277.971 357.441 277.834C357.449 277.697 357.455 277.562 357.459 277.43H357.412C357.338 277.586 357.252 277.752 357.154 277.928C357.061 278.1 356.965 278.254 356.867 278.391L354.225 282.135H357.4ZM366.395 276.434C367.5 276.434 368.307 276.65 368.814 277.084C369.326 277.514 369.582 278.131 369.582 278.936C369.582 279.299 369.521 279.645 369.4 279.973C369.283 280.297 369.092 280.584 368.826 280.834C368.561 281.08 368.211 281.275 367.777 281.42C367.348 281.561 366.82 281.631 366.195 281.631H365.152V285H364.156V276.434H366.395ZM366.301 277.283H365.152V280.775H366.084C366.631 280.775 367.086 280.717 367.449 280.6C367.816 280.482 368.092 280.293 368.275 280.031C368.459 279.766 368.551 279.414 368.551 278.977C368.551 278.406 368.369 277.982 368.006 277.705C367.643 277.424 367.074 277.283 366.301 277.283ZM375.143 285L372.266 277.418H372.219C372.234 277.578 372.248 277.773 372.26 278.004C372.271 278.234 372.281 278.486 372.289 278.76C372.297 279.029 372.301 279.305 372.301 279.586V285H371.375V276.434H372.852L375.564 283.559H375.605L378.359 276.434H379.824V285H378.84V279.516C378.84 279.262 378.844 279.008 378.852 278.754C378.859 278.496 378.869 278.254 378.881 278.027C378.893 277.797 378.904 277.598 378.916 277.43H378.869L375.957 285H375.143Z" fill="#858585"/>
<path d="M291.889 278.432C291.889 278.814 291.814 279.146 291.666 279.428C291.518 279.709 291.311 279.939 291.045 280.119C290.779 280.295 290.467 280.418 290.107 280.488V280.535C290.787 280.621 291.297 280.84 291.637 281.191C291.98 281.543 292.152 282.004 292.152 282.574C292.152 283.07 292.035 283.51 291.801 283.893C291.57 284.275 291.215 284.576 290.734 284.795C290.258 285.01 289.646 285.117 288.9 285.117C288.447 285.117 288.027 285.08 287.641 285.006C287.258 284.936 286.891 284.816 286.539 284.648V283.734C286.895 283.91 287.281 284.049 287.699 284.15C288.117 284.248 288.521 284.297 288.912 284.297C289.693 284.297 290.258 284.143 290.605 283.834C290.953 283.521 291.127 283.096 291.127 282.557C291.127 282.186 291.029 281.887 290.834 281.66C290.643 281.43 290.365 281.262 290.002 281.156C289.643 281.047 289.209 280.992 288.701 280.992H287.846V280.16H288.707C289.172 280.16 289.566 280.092 289.891 279.955C290.215 279.818 290.461 279.627 290.629 279.381C290.801 279.131 290.887 278.836 290.887 278.496C290.887 278.062 290.742 277.729 290.453 277.494C290.164 277.256 289.771 277.137 289.275 277.137C288.971 277.137 288.693 277.168 288.443 277.23C288.193 277.293 287.959 277.379 287.74 277.488C287.521 277.598 287.303 277.725 287.084 277.869L286.592 277.201C286.904 276.959 287.285 276.75 287.734 276.574C288.184 276.398 288.693 276.311 289.264 276.311C290.139 276.311 290.795 276.51 291.232 276.908C291.67 277.307 291.889 277.814 291.889 278.432ZM299.395 276.434C300.5 276.434 301.307 276.65 301.814 277.084C302.326 277.514 302.582 278.131 302.582 278.936C302.582 279.299 302.521 279.645 302.4 279.973C302.283 280.297 302.092 280.584 301.826 280.834C301.561 281.08 301.211 281.275 300.777 281.42C300.348 281.561 299.82 281.631 299.195 281.631H298.152V285H297.156V276.434H299.395ZM299.301 277.283H298.152V280.775H299.084C299.631 280.775 300.086 280.717 300.449 280.6C300.816 280.482 301.092 280.293 301.275 280.031C301.459 279.766 301.551 279.414 301.551 278.977C301.551 278.406 301.369 277.982 301.006 277.705C300.643 277.424 300.074 277.283 299.301 277.283ZM308.143 285L305.266 277.418H305.219C305.234 277.578 305.248 277.773 305.26 278.004C305.271 278.234 305.281 278.486 305.289 278.76C305.297 279.029 305.301 279.305 305.301 279.586V285H304.375V276.434H305.852L308.564 283.559H308.605L311.359 276.434H312.824V285H311.84V279.516C311.84 279.262 311.844 279.008 311.852 278.754C311.859 278.496 311.869 278.254 311.881 278.027C311.893 277.797 311.904 277.598 311.916 277.43H311.869L308.957 285H308.143Z" fill="#858585"/>
<path d="M222.205 285H216.592V284.186L218.883 281.859C219.309 281.43 219.666 281.047 219.955 280.711C220.248 280.375 220.471 280.045 220.623 279.721C220.775 279.393 220.852 279.033 220.852 278.643C220.852 278.158 220.707 277.789 220.418 277.535C220.133 277.277 219.756 277.148 219.287 277.148C218.877 277.148 218.514 277.219 218.197 277.359C217.881 277.5 217.557 277.699 217.225 277.957L216.703 277.301C216.93 277.109 217.176 276.939 217.441 276.791C217.711 276.643 217.998 276.525 218.303 276.439C218.611 276.354 218.939 276.311 219.287 276.311C219.814 276.311 220.27 276.402 220.652 276.586C221.035 276.77 221.33 277.031 221.537 277.371C221.748 277.711 221.854 278.115 221.854 278.584C221.854 279.037 221.764 279.459 221.584 279.85C221.404 280.236 221.152 280.621 220.828 281.004C220.504 281.383 220.125 281.785 219.691 282.211L217.828 284.068V284.109H222.205V285ZM229.395 276.434C230.5 276.434 231.307 276.65 231.814 277.084C232.326 277.514 232.582 278.131 232.582 278.936C232.582 279.299 232.521 279.645 232.4 279.973C232.283 280.297 232.092 280.584 231.826 280.834C231.561 281.08 231.211 281.275 230.777 281.42C230.348 281.561 229.82 281.631 229.195 281.631H228.152V285H227.156V276.434H229.395ZM229.301 277.283H228.152V280.775H229.084C229.631 280.775 230.086 280.717 230.449 280.6C230.816 280.482 231.092 280.293 231.275 280.031C231.459 279.766 231.551 279.414 231.551 278.977C231.551 278.406 231.369 277.982 231.006 277.705C230.643 277.424 230.074 277.283 229.301 277.283ZM238.143 285L235.266 277.418H235.219C235.234 277.578 235.248 277.773 235.26 278.004C235.271 278.234 235.281 278.486 235.289 278.76C235.297 279.029 235.301 279.305 235.301 279.586V285H234.375V276.434H235.852L238.564 283.559H238.605L241.359 276.434H242.824V285H241.84V279.516C241.84 279.262 241.844 279.008 241.852 278.754C241.859 278.496 241.869 278.254 241.881 278.027C241.893 277.797 241.904 277.598 241.916 277.43H241.869L238.957 285H238.143Z" fill="#858585"/>
<path d="M153.213 285H152.264V278.93C152.264 278.699 152.264 278.502 152.264 278.338C152.268 278.17 152.271 278.018 152.275 277.881C152.283 277.74 152.293 277.598 152.305 277.453C152.184 277.578 152.07 277.686 151.965 277.775C151.859 277.861 151.729 277.969 151.572 278.098L150.594 278.883L150.084 278.221L152.404 276.434H153.213V285ZM162.395 276.434C163.5 276.434 164.307 276.65 164.814 277.084C165.326 277.514 165.582 278.131 165.582 278.936C165.582 279.299 165.521 279.645 165.4 279.973C165.283 280.297 165.092 280.584 164.826 280.834C164.561 281.08 164.211 281.275 163.777 281.42C163.348 281.561 162.82 281.631 162.195 281.631H161.152V285H160.156V276.434H162.395ZM162.301 277.283H161.152V280.775H162.084C162.631 280.775 163.086 280.717 163.449 280.6C163.816 280.482 164.092 280.293 164.275 280.031C164.459 279.766 164.551 279.414 164.551 278.977C164.551 278.406 164.369 277.982 164.006 277.705C163.643 277.424 163.074 277.283 162.301 277.283ZM171.143 285L168.266 277.418H168.219C168.234 277.578 168.248 277.773 168.26 278.004C168.271 278.234 168.281 278.486 168.289 278.76C168.297 279.029 168.301 279.305 168.301 279.586V285H167.375V276.434H168.852L171.564 283.559H171.605L174.359 276.434H175.824V285H174.84V279.516C174.84 279.262 174.844 279.008 174.852 278.754C174.859 278.496 174.869 278.254 174.881 278.027C174.893 277.797 174.904 277.598 174.916 277.43H174.869L171.957 285H171.143Z" fill="#858585"/>
<path opacity="0.5" d="M80.2129 285H79.2637V278.93C79.2637 278.699 79.2637 278.502 79.2637 278.338C79.2676 278.17 79.2715 278.018 79.2754 277.881C79.2832 277.74 79.293 277.598 79.3047 277.453C79.1836 277.578 79.0703 277.686 78.9648 277.775C78.8594 277.861 78.7285 277.969 78.5723 278.098L77.5938 278.883L77.084 278.221L79.4043 276.434H80.2129V285ZM89.0723 285H83.459V284.186L85.75 281.859C86.1758 281.43 86.5332 281.047 86.8223 280.711C87.1152 280.375 87.3379 280.045 87.4902 279.721C87.6426 279.393 87.7188 279.033 87.7188 278.643C87.7188 278.158 87.5742 277.789 87.2852 277.535C87 277.277 86.623 277.148 86.1543 277.148C85.7441 277.148 85.3809 277.219 85.0645 277.359C84.748 277.5 84.4238 277.699 84.0918 277.957L83.5703 277.301C83.7969 277.109 84.043 276.939 84.3086 276.791C84.5781 276.643 84.8652 276.525 85.1699 276.439C85.4785 276.354 85.8066 276.311 86.1543 276.311C86.6816 276.311 87.1367 276.402 87.5195 276.586C87.9023 276.77 88.1973 277.031 88.4043 277.371C88.6152 277.711 88.7207 278.115 88.7207 278.584C88.7207 279.037 88.6309 279.459 88.4512 279.85C88.2715 280.236 88.0195 280.621 87.6953 281.004C87.3711 281.383 86.9922 281.785 86.5586 282.211L84.6953 284.068V284.109H89.0723V285ZM99.3965 285L98.3418 282.281H94.9082L93.8594 285H92.8516L96.2031 276.398H97.0996L100.428 285H99.3965ZM98.043 281.396L97.041 278.695C97.0176 278.625 96.9785 278.51 96.9238 278.35C96.873 278.189 96.8203 278.023 96.7656 277.852C96.7109 277.68 96.666 277.541 96.6309 277.436C96.5918 277.596 96.5488 277.756 96.502 277.916C96.459 278.072 96.416 278.219 96.373 278.355C96.3301 278.488 96.293 278.602 96.2617 278.695L95.2422 281.396H98.043ZM105.385 285L102.508 277.418H102.461C102.477 277.578 102.49 277.773 102.502 278.004C102.514 278.234 102.523 278.486 102.531 278.76C102.539 279.029 102.543 279.305 102.543 279.586V285H101.617V276.434H103.094L105.807 283.559H105.848L108.602 276.434H110.066V285H109.082V279.516C109.082 279.262 109.086 279.008 109.094 278.754C109.102 278.496 109.111 278.254 109.123 278.027C109.135 277.797 109.146 277.598 109.158 277.43H109.111L106.199 285H105.385Z" fill="#858585"/>
</g>
<path d="M-22 249L117.074 223.46H183.958L250.807 202.761L318.042 190.91L385.134 136.025L451.959 98.6697L519.299 87.3984L586 43" stroke="url(#paint5_linear_93_2668)" stroke-width="3"/>
<path fill-rule="evenodd" clip-rule="evenodd" d="M-22 249.176L117.074 223.614H183.958L250.807 202.898L318.042 191.036L385.134 136.105L451.959 98.7173L519.299 87.4364L586 43V270H47.8783H0.269896L-22 249.176Z" fill="url(#paint6_linear_93_2668)"/>
<path fill-rule="evenodd" clip-rule="evenodd" d="M519 91C521.761 91 524 88.7614 524 86C524 83.2386 521.761 81 519 81C516.239 81 514 83.2386 514 86C514 88.7614 516.239 91 519 91Z" fill="#096F0F" stroke="white" stroke-width="3"/>
<path fill-rule="evenodd" clip-rule="evenodd" d="M585 47C587.761 47 590 44.7614 590 42C590 39.2386 587.761 37 585 37C582.239 37 580 39.2386 580 42C580 44.7614 582.239 47 585 47Z" fill="#096F0F" stroke="white" stroke-width="3"/>
<path fill-rule="evenodd" clip-rule="evenodd" d="M452 104C454.761 104 457 101.761 457 99C457 96.2386 454.761 94 452 94C449.239 94 447 96.2386 447 99C447 101.761 449.239 104 452 104Z" fill="#096F0F" stroke="white" stroke-width="3"/>
<path fill-rule="evenodd" clip-rule="evenodd" d="M385 141C387.761 141 390 138.761 390 136C390 133.239 387.761 131 385 131C382.239 131 380 133.239 380 136C380 138.761 382.239 141 385 141Z" fill="#096F0F" stroke="white" stroke-width="3"/>
<path fill-rule="evenodd" clip-rule="evenodd" d="M318 195C320.761 195 323 192.761 323 190C323 187.239 320.761 185 318 185C315.239 185 313 187.239 313 190C313 192.761 315.239 195 318 195Z" fill="#096F0F" stroke="white" stroke-width="3"/>
<path fill-rule="evenodd" clip-rule="evenodd" d="M251 208C253.761 208 256 205.761 256 203C256 200.239 253.761 198 251 198C248.239 198 246 200.239 246 203C246 205.761 248.239 208 251 208Z" fill="#096F0F" stroke="white" stroke-width="3"/>
<path fill-rule="evenodd" clip-rule="evenodd" d="M184 228C186.761 228 189 225.761 189 223C189 220.239 186.761 218 184 218C181.239 218 179 220.239 179 223C179 225.761 181.239 228 184 228Z" fill="#096F0F" stroke="white" stroke-width="3"/>
<path fill-rule="evenodd" clip-rule="evenodd" d="M116 229C118.761 229 121 226.761 121 224C121 221.239 118.761 219 116 219C113.239 219 111 221.239 111 224C111 226.761 113.239 229 116 229Z" fill="#096F0F" stroke="white" stroke-width="3"/>
<path fill-rule="evenodd" clip-rule="evenodd" d="M49 241C51.7614 241 54 238.761 54 236C54 233.239 51.7614 231 49 231C46.2386 231 44 233.239 44 236C44 238.761 46.2386 241 49 241Z" fill="#096F0F" stroke="white" stroke-width="3"/>
<rect width="150" height="294" fill="url(#paint7_linear_93_2668)"/>
<defs>
<linearGradient id="paint0_linear_93_2668" x1="0" y1="1.5" x2="619" y2="1.5" gradientUnits="userSpaceOnUse">
<stop stop-color="white"/>
<stop offset="1" stop-color="#CCCCCC"/>
</linearGradient>
<linearGradient id="paint1_linear_93_2668" x1="0" y1="68.5" x2="619" y2="68.5" gradientUnits="userSpaceOnUse">
<stop stop-color="white"/>
<stop offset="1" stop-color="#CCCCCC"/>
</linearGradient>
<linearGradient id="paint2_linear_93_2668" x1="0" y1="135.5" x2="619" y2="135.5" gradientUnits="userSpaceOnUse">
<stop stop-color="white"/>
<stop offset="1" stop-color="#CCCCCC"/>
</linearGradient>
<linearGradient id="paint3_linear_93_2668" x1="0" y1="202.5" x2="619" y2="202.5" gradientUnits="userSpaceOnUse">
<stop stop-color="white"/>
<stop offset="1" stop-color="#CCCCCC"/>
</linearGradient>
<linearGradient id="paint4_linear_93_2668" x1="0" y1="269.5" x2="619" y2="269.5" gradientUnits="userSpaceOnUse">
<stop stop-color="white"/>
<stop offset="1" stop-color="#CCCCCC"/>
</linearGradient>
<linearGradient id="paint5_linear_93_2668" x1="195.506" y1="322.695" x2="285.097" y2="58.271" gradientUnits="userSpaceOnUse">
<stop stop-color="white" stop-opacity="0.01"/>
<stop offset="1" stop-color="#001844"/>
</linearGradient>
<linearGradient id="paint6_linear_93_2668" x1="-22" y1="43" x2="-22" y2="270" gradientUnits="userSpaceOnUse">
<stop stop-color="#001844" stop-opacity="0.24"/>
<stop offset="1" stop-color="white" stop-opacity="0.2"/>
</linearGradient>
<linearGradient id="paint7_linear_93_2668" x1="0" y1="294" x2="150" y2="294" gradientUnits="userSpaceOnUse">
<stop stop-color="white"/>
<stop offset="1" stop-color="white" stop-opacity="0.01"/>
</linearGradient>
<clipPath id="clip0_93_2668">
<rect width="23" height="292" fill="white" transform="translate(598)"/>
</clipPath>
<clipPath id="clip1_93_2668">
<rect width="502" height="24" fill="white" transform="translate(76 268)"/>
</clipPath>
</defs>
</svg>
